<svg id="visual" viewBox="0 0 4096 2160" width="4096" height="2160" xmlns="http://www.w3.org/2000/svg" xmlns:xlink="http://www.w3.org/1999/xlink" version="1.1"><rect x="0" y="0" width="4096" height="2160" fill="#000F38"></rect><defs><linearGradient id="grad1_0" x1="47.3%" y1="0%" x2="100%" y2="100%"><stop offset="12.074074074074073%" stop-color="#000f38" stop-opacity="1"></stop><stop offset="87.92592592592592%" stop-color="#000f38" stop-opacity="1"></stop></linearGradient></defs><defs><linearGradient id="grad2_0" x1="0%" y1="0%" x2="52.7%" y2="100%"><stop offset="12.074074074074073%" stop-color="#000f38" stop-opacity="1"></stop><stop offset="87.92592592592592%" stop-color="#000f38" stop-opacity="1"></stop></linearGradient></defs><g transform="translate(4096, 0)"><path d="M0 1836C-307.2 1767 -614.4 1698 -897 1553.6C-1179.6 1409.3 -1437.6 1189.5 -1590 918C-1742.4 646.5 -1789.2 323.2 -1836 0L0 0Z" fill="#212EA0"></path></g><g transform="translate(0, 2160)"><path d="M0 -1836C321.9 -1788.4 643.7 -1740.8 918 -1590C1192.3 -1439.2 1419 -1185.2 1564 -903C1709.1 -620.8 1772.6 -310.4 1836 0L0 0Z" fill="#212EA0"></path></g></svg>